<svg xmlns="http://www.w3.org/2000/svg" width="49" height="60" viewBox="0 0 64 64">
    <defs>
        <style type="text/css">
            .cls-1{fill:#fff}
        </style>
    </defs>
    <g id="ic_ammocoin">
        <path class="cls-1" d="M36.5,55.9h-.5v1.1h.5v.7h-8.3v-.7h.5v-1h-.5c0,0,0-.2,0-.3,0-3.1,0-6.1,0-9.2,0-4.2,0-8.3.1-12.5,0-2,0-3.9,0-5.9,0-.2,0-.3,0-.5.2-.9.5-1.7.6-2.6.1-.5.2-1,.2-1.5v-5.6h.1c0-.2.2-.3.2-.5.2-3.5.6-7,1.2-10.5.2-1.1.6-2.2,1-3.3.1-.2.2-.4.4-.7.3.5.5,1,.7,1.5.6,1.8,1,3.6,1.2,5.5.3,2.5.5,5,.7,7.5,0,.1,0,.3,0,.3.3,0,.2.3.2.5v4.7c0,.8,0,1.6.3,2.4.5,1.8.7,3.8.7,5.7,0,5.1,0,10.2.2,15.2,0,3,0,6,0,9v.6Z"/>
        <path class="cls-1" d="M24.1,48.3h-.4v.7h.4v.5h-6.7v-.5h.4v-.7h-.5v-5.3c0-3.7.1-7.4.2-11.1,0-1.4,0-2.8,0-4.1,0-.2,0-.4.2-.6.4-.7.6-1.4.5-2.2,0-1,0-2.1,0-3.1s0-.3.2-.3c0,0,0-.2.1-.2,0-1,.1-2,.3-3,.1-2,.5-4,1.2-5.9.2-.4.4-.8.6-1.2h.1c.2.2.3.5.5.8.5,1.2.9,2.4,1,3.6.2,1.8.4,3.7.6,5.5,0,.1,0,.4.2.4,0,0,0,.2,0,.3v3.7c0,.4,0,.7.2,1,.4.6.6,1.3.5,2,0,2.8,0,5.6,0,8.4,0,2.1,0,4.2,0,6.3v4.6c.1.1.1.2.1.4Z"/>
        <path class="cls-1" d="M14.3,38.3h-.3q-.4,0-.3.4h.5v.7h-4.7v-.6h.5v-.5h-.6v-9.5c0-.1,0-.3.1-.4s0-.2,0-.3c0-1.1.3-2.2.7-3.3.2-.4.4-.7.6-1,.3-.5.9-.7,1.4-.4.2,0,.3.2.4.4.5.6.8,1.3.9,2,.2.8.3,1.6.4,2.4,0,0,0,.1.1.2,0,0,0,.2,0,.2v9.5h0Z"/>
        <path class="cls-1" d="M55.1,38.3h-.2q-.4,0-.3.4h.5v.7h-4.7v-.6h.5v-.5h-.5v-9.5c0-.1,0-.3.1-.4s0-.2,0-.3c0-1.1.3-2.2.7-3.3.2-.4.4-.7.6-1,.3-.5.9-.7,1.4-.4.2,0,.3.2.4.4.5.6.8,1.3.9,2,.2.8.3,1.6.4,2.4,0,0,0,.1.1.2,0,0,0,.2,0,.2v9.5h0Z"/>
        <path class="cls-1" d="M47.3,48.3h-.4v.7h.4v.5h-6.7v-.5h.4v-.7h-.4v-1c0-1.4,0-2.8,0-4.3,0-3.7,0-7.4.1-11.1,0-1.4,0-2.8,0-4.1,0-.2,0-.4.2-.6.4-.6.6-1.4.5-2.2,0-1,0-2.1,0-3.1s0-.3.2-.3c0,0,0-.2,0-.2,0-1,.2-2,.3-3,.1-2,.6-4,1.2-5.9.2-.4.4-.8.6-1.2h.1c.2.2.3.5.5.8.5,1.2.9,2.4,1,3.6.2,1.8.4,3.7.6,5.5,0,.1,0,.4.2.4v4c0,.4,0,.7.2,1,.4.6.6,1.3.5,2,0,2.8,0,5.6,0,8.4,0,2.1,0,4.2,0,6.3v4.6c0,0,.1.3.1.3Z"/>
        <path class="cls-1" d="M32.3,63.9l-27.6-15.9v-31.9L32.3.1l27.6,15.9v31.9l-27.6,15.9ZM6.7,46.8l25.6,14.8,25.6-14.8v-29.6L32.3,2.4,6.7,17.2v29.6Z"/>
    </g>
</svg>
