<?xml version="1.0" encoding="UTF-8"?><svg xmlns="http://www.w3.org/2000/svg" xmlns:xlink="http://www.w3.org/1999/xlink" viewBox="0 0 1349.46 360"><defs><style>.g{fill:none;}.h{clip-path:url(#f);}.i{clip-path:url(#e);}</style><clipPath id="e"><rect class="g" x="989.46" width="360" height="360"/></clipPath><clipPath id="f"><rect class="g" x="989.46" width="360" height="360"/></clipPath></defs><g id="a"/><g id="b"><g id="c"><g><g id="d"><path d="M1170.5,254.68c-41.23-.03-74.63-33.48-74.6-74.71,.03-41.23,33.48-74.63,74.71-74.6,41.21,.03,74.6,33.44,74.6,74.65-.06,41.23-33.48,74.62-74.71,74.65Zm0-143.69c-38.13,.03-69.01,30.96-68.98,69.09,.03,38.13,30.96,69.01,69.09,68.98,38.1-.03,68.98-30.93,68.98-69.03-.06-38.12-30.97-69-69.09-69.03Z"/><g class="i"><g class="h"><g><path d="M1088.83,108.35l-2.81,3.93-7.13-5.28-6.68,9.27,7.08,5.11-2.81,3.93-13.76-9.94c-1.47-.91-2.45-2.44-2.64-4.16l-1.18-9.1,2.47-3.37,8.99-1.69c1.7-.4,3.48,.06,4.77,1.24l13.71,10.05Zm-16.35-5.62c-.84-.56-1.07-.67-1.85-.56l-7.13,1.18c0,.39,1.18,7.08,1.18,7.08,0,0,.28,.95,1.07,1.57l3.03,2.13,6.68-9.21-2.98-2.19Z"/><path d="M1106.8,92.74l-12.53-15.45-.28,7.75-2.3,1.85-7.81-1.35,12.47,15.45-3.76,3.09-17.53-21.68,3.09-2.47,11.23,2.08v-11.52l3.09-2.47,17.47,21.63-3.15,3.09Z"/><path d="M1132.08,79.59l-7.86-18.26-2.36,7.36-2.75,1.18-7.13-3.37,7.98,18.03-4.49,1.97-10.95-25.61,3.65-1.57,10.5,5.17c0-.62,3.26-11.23,3.26-11.23l3.65-1.57,11.23,25.61-4.72,2.3Z"/><path d="M1156.91,74.15l-8.26,1.12c-3.47,.7-6.84-1.54-7.55-5.01-.04-.2-.07-.41-.09-.61l-2.02-14.72c-.52-3.53,1.92-6.81,5.44-7.34,.06,0,.11-.02,.17-.02l8.26-1.12c3.47-.7,6.84,1.54,7.55,5.01,.04,.2,.07,.41,.09,.61l2.02,14.72c.52,3.53-1.92,6.81-5.44,7.34-.06,0-.11,.02-.17,.02m-.9-21.68c-.08-.88-.8-1.58-1.69-1.63l-8.65,1.35c-.94,.14-1.59,1.02-1.46,1.97l2.08,15.22c.14,.93,.98,1.59,1.91,1.52l8.71-1.24c.94-.14,1.59-1.02,1.46-1.97l-2.36-15.22Z"/><path d="M1183.81,74.99l-7.36-.9c-3.59-.28-6.27-3.42-5.98-7.01,0-.1,.02-.2,.03-.29l1.8-14.77c.41-3.54,3.61-6.09,7.15-5.68,.14,.02,.29,.04,.43,.06l7.41,.9c3.6,.48,6.12,3.79,5.64,7.39,0,.05-.01,.09-.02,.14v1.69l-4.89-.62,.28-2.08c.1-.94-.53-1.79-1.46-1.97l-7.47-1.01c-.93-.07-1.77,.59-1.91,1.52l-2.13,15.33c-.1,.94,.53,1.79,1.46,1.97l7.81,1.01c.94,.01,1.74-.65,1.91-1.57v-2.13l4.89,.56v1.97c-.41,3.54-3.62,6.08-7.16,5.67-.12-.01-.24-.03-.36-.05"/><path d="M1210.27,82.91l-7.75-3.15c-3.38-1.15-5.18-4.83-4.02-8.2,.05-.13,.09-.26,.15-.39l5.62-13.76c1.28-3.3,4.98-4.94,8.28-3.66,.18,.07,.36,.15,.54,.24l7.75,3.09c3.38,1.15,5.18,4.83,4.02,8.2-.05,.13-.09,.26-.15,.39l-5.62,13.76c-1.27,3.3-4.98,4.94-8.28,3.66-.14-.06-.29-.12-.43-.18m9.94-19.27c.39-.88,0-1.91-.89-2.3h-.01l-8.31-3.38c-.9-.34-1.9,.11-2.25,1.01h0l-5.9,14.33c-.33,.88,.06,1.88,.9,2.3l8.37,3.37c.9,.31,1.88-.13,2.25-1.01l5.84-14.32Z"/><polygon points="1221.62 88.75 1224.15 85.21 1227.4 87.51 1238.36 71.84 1235.04 69.54 1237.57 65.94 1248.19 73.36 1245.66 76.95 1242.34 74.6 1231.39 90.27 1234.76 92.63 1232.23 96.16 1221.62 88.75"/><polygon points="1247.96 111.67 1254.2 105.94 1255.21 89.87 1240.43 103.47 1237.12 99.87 1257.62 81 1260.38 84.03 1259.25 101.28 1268.46 92.79 1271.78 96.45 1251.28 115.26 1247.96 111.67"/><path d="M1245.66,248.05l2.81-3.93,7.13,5.17,6.68-9.21-7.08-5.17,2.81-3.93,13.71,9.94c1.51,.9,2.51,2.46,2.7,4.21l1.18,9.04-2.47,3.43-8.99,1.63c-1.7,.4-3.48-.06-4.77-1.24l-13.71-9.94Zm16.35,5.62c.46,.52,1.18,.74,1.85,.56l7.13-1.18c0-.39-1.18-7.08-1.18-7.08,0,0-.28-.95-1.12-1.57l-2.98-2.13-6.68,9.21,2.98,2.19Z"/><path d="M1227.68,263.67l12.53,15.45,.28-7.75,2.3-1.85,7.64,1.35-12.53-15.45,3.82-3.09,17.53,21.68-3.15,2.47-11.23-2.08v11.52l-3.71,2.53-17.53-21.68,4.04-3.09Z"/><path d="M1202.41,276.81l7.86,18.26,2.36-7.36,2.7-.95,7.02,3.37-7.86-18.26,4.49-1.91,11.23,25.56-3.65,1.57-10.56-5.17c0,.62-3.2,11.23-3.2,11.23l-3.65,1.57-11.23-25.56,4.49-2.36Z"/><path d="M1177.35,282.26l8.26-1.12c3.54-.65,6.93,1.7,7.58,5.24,.02,.13,.04,.25,.06,.38l2.02,14.72c.52,3.53-1.92,6.81-5.44,7.34-.06,0-.11,.02-.17,.02l-8.26,1.12c-3.47,.7-6.84-1.54-7.55-5.01-.04-.2-.07-.41-.09-.61l-2.02-14.72c-.52-3.53,1.92-6.81,5.44-7.34,.06,0,.11-.02,.17-.02m.9,21.68c.14,.93,.98,1.59,1.91,1.52l8.93-1.18c.94-.2,1.57-1.07,1.46-2.02l-2.08-15.22c-.14-.93-.98-1.59-1.91-1.52l-8.99,1.24c-.9,.2-1.51,1.05-1.4,1.97l2.08,15.22Z"/><path d="M1150.67,281.42l7.36,.95c3.56,.25,6.24,3.34,5.99,6.9,0,.12-.02,.23-.03,.35l-1.85,14.77c-.41,3.54-3.62,6.08-7.16,5.67-.12-.01-.24-.03-.36-.05l-7.47-.79c-3.6-.48-6.12-3.79-5.64-7.39,0-.05,.01-.09,.02-.14v-1.69l4.89,.62-.28,2.08c-.1,.94,.53,1.79,1.46,1.97l7.81,.95c.93,.07,1.77-.59,1.91-1.52l1.85-15.11c.1-.94-.53-1.79-1.46-1.97l-7.81-.95c-.93-.07-1.77,.59-1.91,1.52v2.19l-4.89-.62v-1.97c.44-3.57,3.7-6.11,7.27-5.66,.11,.01,.21,.03,.31,.05"/><path d="M1124.22,273.5l7.75,3.15c3.38,1.15,5.18,4.83,4.02,8.2-.05,.13-.09,.26-.15,.39l-5.62,13.76c-1.3,3.32-5.05,4.95-8.37,3.65-.13-.05-.26-.11-.39-.17l-7.75-3.15c-3.38-1.15-5.18-4.83-4.02-8.2,.05-.13,.09-.26,.15-.39l5.62-13.76c1.3-3.32,5.05-4.95,8.37-3.65,.13,.05,.26,.11,.39,.17m-9.94,19.27c-.37,.87,0,1.88,.84,2.3l8.37,3.37c.9,.31,1.88-.13,2.25-1.01l5.62-14.21c.33-.88-.06-1.88-.9-2.3l-8.37-3.37c-.9-.31-1.88,.13-2.25,1.01l-5.56,14.21Z"/><polygon points="1112.87 267.65 1110.34 271.25 1107.03 268.95 1096.13 284.62 1099.45 286.87 1096.92 290.46 1086.3 283.05 1088.77 279.51 1092.14 281.81 1103.04 266.14 1099.73 263.84 1102.2 260.24 1112.87 267.65"/><polygon points="1086.53 244.74 1080.29 250.47 1079.28 266.53 1094.05 252.94 1097.37 256.59 1076.86 275.41 1074.06 272.37 1075.24 255.13 1066.02 263.61 1062.71 260.02 1083.21 241.14 1086.53 244.74"/><polygon points="1059.73 189.58 1050.97 185.48 1042.66 190.36 1043.84 180.81 1036.59 174.41 1046.08 172.56 1049.9 163.68 1054.62 172.11 1064.23 173.01 1057.65 180.14 1059.73 189.58"/><polygon points="1297.79 190.76 1289.02 186.66 1280.65 191.54 1281.83 181.99 1274.59 175.59 1284.08 173.74 1287.9 164.86 1292.62 173.29 1302.28 174.19 1295.65 181.32 1297.79 190.76"/></g></g></g><path d="M1169.49,5c-96.67,0-175.03,78.36-175.03,175.03s78.36,175.03,175.03,175.03c96.63-.09,174.94-78.4,175.03-175.03,0-96.67-78.36-175.03-175.03-175.03Zm0,338.82c-90.46,0-163.79-73.33-163.79-163.79s73.33-163.79,163.79-163.79c90.42,.09,163.7,73.37,163.79,163.79,0,90.46-73.33,163.79-163.79,163.79Z"/><circle cx="1170.56" cy="180.03" r="13.14"/></g><path d="M979.21,345V5h-10.8l-151.19,214.64L666.03,5h-10.8V345h-17.12V5h-10.8l-151.19,214.64L324.91,5h-10.8V345h-7.67L160.52,5h-10.31L0,355H12.27l48.11-112.64H249.86l48.6,112.64h26.94V25.3h.49l150.21,213.19L626.32,25.3h.49V355h39.7V25.3h.49l150.21,213.19L967.43,25.3h.49V345h-.06v10h195.09v-10h-183.74ZM64.8,231.73L155.12,21.44h.49l89.83,210.29H64.8Z"/></g></g></g></svg>